<svg width="348" height="241" viewBox="0 0 348 241" fill="none" xmlns="http://www.w3.org/2000/svg">
  <path
    d="M347.935 113.783C347.935 51.1437 270.061 -0.000244141 173.996 -0.000244141C77.846 0.055563 0 51.1437 0 113.783C0 115.429 0 119.866 0 120.424C0 186.914 68.0804 240.792 173.94 240.792C280.441 240.792 347.852 186.914 347.852 120.424V113.783H347.935Z"
    fill="#283373" />
  <path
    d="M341.211 113.783C341.211 172.851 266.35 220.787 173.996 220.787C81.6406 220.787 6.7243 172.851 6.7243 113.783C6.7243 54.7152 81.5848 6.77991 173.94 6.77991C266.295 6.77991 341.211 54.6315 341.211 113.783Z"
    fill="#FFCF00" />
  <path
    d="M118.415 79.9942C118.359 80.1337 116.629 81.9194 117.773 83.2866C120.424 86.6348 128.571 88.56 136.775 86.7185C141.713 85.6303 147.991 80.5801 154.074 75.781C160.631 70.5634 167.215 65.2899 173.772 63.1973C180.776 60.9931 185.212 61.9138 188.225 62.8625C191.434 63.8391 195.285 65.9317 201.367 70.5076C212.779 79.0735 258.789 119.28 266.797 126.2C273.214 123.354 301.646 111.077 340.29 102.567C336.942 81.9194 324.358 63.0578 305.357 47.6281C278.85 58.7888 246.429 64.5645 214.788 49.1348C214.648 49.0791 197.489 40.9317 180.58 41.3502C155.441 41.9361 144.559 52.7899 133.008 64.3413L118.415 79.9942Z"
    fill="white" />
  <path
    d="M264.927 130.58C264.369 130.078 210.854 83.2029 198.717 74.079C191.713 68.7776 187.779 67.4105 183.705 66.9361C181.585 66.6292 178.655 67.0756 176.562 67.6337C170.926 69.1404 163.56 74.1348 157.003 79.2687C150.223 84.7096 143.778 89.7877 137.863 91.127C130.273 92.8569 121.01 90.848 116.797 88.002C115.067 86.858 113.867 85.4908 113.281 84.1515C111.719 80.4964 114.565 77.6504 115.067 77.1482L129.855 61.1326C131.585 59.4305 133.287 57.7006 135.073 55.9986C130.273 56.6403 125.865 57.8401 121.568 58.9841C116.211 60.4908 111.077 61.9138 105.859 61.9138C103.711 61.9138 91.9922 59.9886 89.7879 59.4305C76.423 55.7754 64.6484 52.204 47.154 44.0009C26.144 59.6259 12.0815 79.2129 8.00781 100.697C10.9933 101.506 15.8482 102.929 17.9408 103.432C65.5134 114.006 80.2734 124.916 83.0078 127.148C85.9375 123.912 90.067 121.847 94.7824 121.847C100.084 121.847 104.799 124.498 107.645 128.571C110.352 126.423 114.146 124.553 119.001 124.553C121.205 124.553 123.493 125 125.781 125.781C131.138 127.65 133.929 131.222 135.352 134.431C137.137 133.649 139.369 133.008 141.992 133.008C144.559 133.008 147.21 133.566 149.916 134.71C158.705 138.504 160.073 147.07 159.291 153.571C159.933 153.487 160.575 153.487 161.217 153.487C171.652 153.487 180.078 161.914 180.078 172.349C180.078 175.558 179.213 178.571 177.79 181.278C180.636 182.84 187.863 186.495 194.141 185.63C199.219 184.989 201.144 183.287 201.786 182.282C202.288 181.64 202.79 180.859 202.288 180.273L188.867 165.346C188.867 165.346 186.635 163.281 187.36 162.416C188.142 161.579 189.509 162.779 190.43 163.56C197.294 169.28 205.58 177.846 205.58 177.846C205.72 177.929 206.278 179.073 209.347 179.576C211.998 180.078 216.713 179.771 219.922 177.064C220.787 176.423 221.568 175.558 222.293 174.721C222.21 174.776 222.21 174.776 222.154 174.86C225.558 170.508 221.791 165.987 221.791 165.987L206.138 148.437C206.138 148.437 203.934 146.345 204.632 145.508C205.357 144.782 206.78 145.842 207.701 146.707C212.64 150.865 219.727 157.924 226.423 164.509C227.706 165.429 233.65 169.14 241.434 164.006C246.15 160.854 247.154 157.059 246.987 154.213C246.652 150.418 243.722 147.712 243.722 147.712L222.294 126.2C222.294 126.2 220.006 124.274 220.871 123.27C221.512 122.433 222.991 123.633 223.94 124.414C230.72 130.134 249.219 147.07 249.219 147.07C249.498 147.293 255.859 151.785 263.728 146.791C266.49 145.005 268.359 142.271 268.499 139.146C268.778 133.789 264.927 130.58 264.927 130.58Z"
    fill="white" />
  <path
    d="M161.133 157.84C157.868 157.784 154.213 159.793 153.711 159.486C153.432 159.347 153.934 158.008 154.213 157.198C154.492 156.417 158.929 143.275 148.298 138.7C140.151 135.212 135.156 139.146 133.426 140.932C133.008 141.35 132.785 141.35 132.701 140.792C132.561 138.421 131.501 132.003 124.442 129.855C114.369 126.785 107.924 133.789 106.278 136.356C105.58 130.636 100.725 126.144 94.7823 126.144C88.3649 126.144 83.1473 131.361 83.0636 137.779C83.0636 144.196 88.2812 149.414 94.7265 149.414C97.8515 149.414 100.725 148.214 102.79 146.149C102.846 146.205 102.846 146.289 102.846 146.568C102.344 149.414 101.423 159.933 112.416 164.202C116.853 165.932 120.564 164.648 123.716 162.5C124.637 161.858 124.777 162.137 124.637 163.002C124.219 165.708 124.721 171.484 132.868 174.776C139.007 177.288 142.634 174.721 145.061 172.489C146.15 171.568 146.429 171.707 146.429 173.13C146.708 180.915 153.209 187.137 161.077 187.137C169.224 187.137 175.781 180.58 175.781 172.489C175.781 164.425 169.224 157.924 161.133 157.84Z"
    fill="white" />
  <path
    d="M266.992 124.916C250.502 110.491 212.36 77.3435 202.009 69.6426C196.066 65.2062 192.076 62.8625 188.56 61.7743C186.998 61.2721 184.794 60.7698 181.92 60.7698C179.297 60.7698 176.507 61.272 173.493 62.2207C166.853 64.3413 160.156 69.6426 153.711 74.7207L153.348 74.9997C147.349 79.7709 141.155 84.7095 136.496 85.714C134.431 86.1325 132.366 86.4116 130.273 86.4116C125.084 86.4116 120.285 84.9328 118.583 82.6448C118.276 82.2821 118.499 81.6404 119.141 80.7754L119.224 80.6359L133.705 64.983C145.061 53.627 155.776 42.9127 180.58 42.3547C180.999 42.3547 181.417 42.3547 181.78 42.3547C197.154 42.3547 212.584 49.2743 214.286 50.0556C228.711 57.1426 243.583 60.714 258.566 60.714C274.135 60.714 290.29 56.8636 307.227 49.079C305.357 47.4886 303.348 45.9261 301.367 44.4194C286.496 50.8647 272.349 54.1292 258.65 54.1292C244.727 54.1292 230.72 50.781 217.215 44.1404C216.49 43.7776 199.498 35.7698 181.864 35.7698C181.417 35.7698 180.915 35.7698 180.441 35.7698C159.654 36.2721 147.991 43.6381 140.067 50.0556C132.422 50.2788 125.865 52.0645 119.922 53.7107C114.704 55.1337 110.156 56.4171 105.776 56.4171C103.99 56.4171 100.725 56.2776 100.419 56.2776C95.3683 56.1381 69.7824 49.8602 49.442 42.1314C47.3493 43.6381 45.3683 45.1448 43.4152 46.6515C64.6484 55.3569 90.5134 62.0533 98.7165 62.6392C101.004 62.7787 103.432 63.0577 105.859 63.0577C111.272 63.0577 116.629 61.579 121.847 60.0723C124.916 59.2073 128.348 58.2865 131.92 57.5611C130.999 58.4819 129.994 59.4305 129.074 60.435L114.369 76.339C113.225 77.483 110.631 80.6359 112.361 84.4863C113.002 86.0767 114.369 87.5555 116.211 88.7832C119.727 91.127 126.004 92.7732 131.864 92.7732C134.068 92.7732 136.133 92.5779 138.058 92.1314C144.28 90.7922 150.725 85.5745 157.561 80.1337C163.058 75.781 170.871 70.2843 176.786 68.6381C178.432 68.2196 180.497 67.9127 182.143 67.9127C182.645 67.9127 183.064 67.9127 183.51 67.9964C187.416 68.4986 191.211 69.8658 197.991 74.916C210.073 83.9841 263.728 130.859 264.202 131.361C264.202 131.361 267.634 134.347 267.439 139.202C267.299 141.936 265.792 144.364 263.142 146.066C260.854 147.489 258.51 148.27 256.138 148.27C252.567 148.27 250.084 146.568 249.916 146.484C249.721 146.345 231.362 129.492 224.637 123.856C223.577 122.991 222.489 122.126 221.512 122.126C220.926 122.126 220.424 122.349 220.061 122.768C219.001 124.079 220.201 125.92 221.568 127.064L242.997 148.633C242.997 148.633 245.647 151.144 245.926 154.436C246.066 158.008 244.364 160.993 240.848 163.281C238.365 164.927 235.798 165.792 233.287 165.792C229.994 165.792 227.706 164.285 227.148 163.923L224.079 160.937C218.415 155.413 212.64 149.637 208.426 146.149C207.422 145.284 206.278 144.503 205.218 144.503C204.715 144.503 204.213 144.698 203.85 145.061C203.348 145.647 203.013 146.568 204.213 148.214C204.715 148.856 205.273 149.414 205.273 149.414L220.926 166.992C221.066 167.131 224.135 170.842 221.289 174.498L220.703 175.223C220.201 175.697 219.727 176.2 219.28 176.646C216.629 178.85 213.058 179.073 211.635 179.073C210.854 179.073 210.156 178.99 209.487 178.85C207.924 178.571 206.92 178.125 206.417 177.567L206.222 177.343C205.357 176.506 197.489 168.415 190.932 163.002C190.067 162.277 189.007 161.356 187.863 161.356C187.277 161.356 186.858 161.579 186.44 161.997C185.156 163.42 187.081 165.485 187.919 166.294L201.284 180.999C201.284 181.138 201.06 181.417 200.781 181.919C200.279 182.561 198.717 184.207 193.862 184.793C193.276 184.849 192.634 184.933 192.076 184.933C187.082 184.933 181.78 182.505 178.99 181.054C180.218 178.432 180.915 175.502 180.915 172.628C180.915 161.635 171.987 152.706 160.993 152.706C160.798 152.706 160.491 152.706 160.296 152.706C160.631 147.712 159.933 138.197 150.223 133.984C147.433 132.784 144.643 132.143 141.853 132.143C139.704 132.143 137.723 132.505 135.798 133.203C133.789 129.269 130.441 126.423 126.06 124.916C123.633 124.079 121.289 123.633 118.917 123.633C114.844 123.633 111.133 124.86 107.785 127.204C104.576 123.214 99.7768 120.842 94.7266 120.842C90.2902 120.842 85.9933 122.628 82.8683 125.781C78.711 122.628 62.221 112.137 18.1362 102.148C15.9878 101.646 11.077 100.279 8.06365 99.358C7.56142 101.702 7.2266 104.129 6.91968 106.557C6.91968 106.557 15.067 108.482 16.6295 108.845C61.7188 118.861 76.5625 129.269 79.0737 131.222C78.2087 133.287 77.7902 135.491 77.7902 137.723C77.7902 146.986 85.3516 154.576 94.6429 154.576C95.7032 154.576 96.7076 154.492 97.7121 154.269C99.1351 161.133 103.571 166.35 110.435 169.001C112.416 169.782 114.425 170.145 116.434 170.145C117.718 170.145 119.001 170.005 120.285 169.643C121.568 172.851 124.442 176.841 130.776 179.436C133.008 180.357 135.212 180.775 137.416 180.775C139.202 180.775 140.932 180.496 142.578 179.855C145.647 187.277 152.846 192.215 160.993 192.215C166.35 192.215 171.512 190.067 175.279 186.133C178.488 187.918 185.296 191.127 192.132 191.127C192.997 191.127 193.862 191.071 194.727 190.987C201.507 190.15 204.715 187.5 206.138 185.435C206.417 185.072 206.641 184.71 206.864 184.291C208.426 184.71 210.212 185.128 212.277 185.128C215.988 185.128 219.559 183.845 223.214 181.222C226.786 178.627 229.297 175 229.632 171.847C229.632 171.791 229.632 171.791 229.632 171.707C230.859 171.931 232.059 172.07 233.287 172.07C237.137 172.07 240.848 170.842 244.503 168.499C251.423 163.923 252.651 158.008 252.511 154.129C253.711 154.436 254.939 154.492 256.222 154.492C259.794 154.492 263.365 153.432 266.713 151.283C271.01 148.577 273.577 144.364 273.996 139.425C274.275 136.077 273.438 132.701 271.708 129.855C283.371 124.86 309.933 115.15 341.211 108.063C340.988 105.636 340.653 103.208 340.207 100.865C302.288 109.57 274.079 121.791 266.992 124.916ZM161.133 186.133C153.795 186.133 147.796 180.413 147.573 173.13C147.573 172.489 147.489 170.842 146.066 170.842C145.508 170.842 145.006 171.205 144.42 171.707C142.773 173.214 140.792 174.721 137.723 174.721C136.356 174.721 134.849 174.414 133.287 173.772C125.502 170.647 125.419 165.29 125.725 163.141C125.781 162.556 125.865 161.997 125.419 161.495L125 161.133H124.498C124.079 161.133 123.717 161.272 123.131 161.718C120.926 163.281 118.722 164.062 116.574 164.062C115.346 164.062 114.146 163.839 112.863 163.365C102.651 159.347 103.432 149.721 103.934 146.847C103.99 146.289 103.85 145.787 103.488 145.508L102.79 144.922L102.148 145.424C100.14 147.349 97.5726 148.437 94.7824 148.437C88.923 148.437 84.1518 143.638 84.1518 137.779C84.1518 131.919 88.923 127.148 94.7824 127.204C100.084 127.204 104.576 131.222 105.273 136.495L105.636 139.341L107.227 136.914C107.366 136.635 111.719 130.134 119.559 130.134C121.066 130.134 122.656 130.357 124.219 130.859C130.497 132.784 131.585 138.504 131.724 140.848C131.864 142.215 132.785 142.271 133.008 142.271C133.566 142.271 133.929 141.936 134.208 141.629C135.435 140.429 138.002 138.365 141.992 138.365C143.862 138.365 145.787 138.783 147.852 139.648C157.868 143.917 153.292 156.64 153.292 156.78C152.427 158.845 152.344 159.793 153.209 160.351L153.571 160.575H153.85C154.297 160.575 154.855 160.351 155.776 160.072C157.143 159.57 159.208 158.928 161.133 158.928C168.638 158.984 174.777 165.15 174.777 172.572C174.777 180.078 168.638 186.133 161.133 186.133Z"
    fill="#283373" />
</svg>